name Walk9.mot
datacolumns 19
datarows 17
range 2.04300000 2.05900000
endheader

                time	   L_ground_force_vx	   L_ground_force_vy	   L_ground_force_vz	   L_ground_force_px	   L_ground_force_py	   L_ground_force_pz	   R_ground_force_vx	   R_ground_force_vy	   R_ground_force_vz	   R_ground_force_px	   R_ground_force_py	   R_ground_force_pz	   L_ground_torque_x	   L_ground_torque_y	   L_ground_torque_z	   R_ground_torque_x	   R_ground_torque_y	   R_ground_torque_z	
          2.04300000	          0.00280512	          0.03312323	         -0.00355813	         -0.00006016	          0.00000000	         -0.00006015	        -37.14945599	        863.13552864	        -39.44088768	          0.56587065	          0.00000000	          0.09624378	          0.00000000	          0.00009756	          0.00000000	          0.00000000	          1.31746221	          0.00000000	
          2.04400000	          0.00147210	          0.02915512	         -0.00317850	         -0.00005700	          0.00000000	         -0.00005770	        -36.71907288	        861.03561046	        -39.29163890	          0.56613567	          0.00000000	          0.09630833	          0.00000000	          0.00008326	          0.00000000	          0.00000000	          1.26010302	          0.00000000	
          2.04500000	          0.00024684	          0.02541423	         -0.00281914	         -0.00005389	          0.00000000	         -0.00005524	        -36.29529088	        858.97125447	        -39.14774321	          0.56640034	          0.00000000	          0.09637211	          0.00000000	          0.00006985	          0.00000000	          0.00000000	          1.20332917	          0.00000000	
          2.04600000	         -0.00087516	          0.02189536	         -0.00247968	         -0.00005084	          0.00000000	         -0.00005278	        -35.87802327	        856.94251749	        -39.00931870	          0.56666466	          0.00000000	          0.09643515	          0.00000000	          0.00005732	          0.00000000	          0.00000000	          1.14712740	          0.00000000	
          2.04700000	         -0.00189847	          0.01859295	         -0.00215971	         -0.00004786	          0.00000000	         -0.00005034	        -35.46718610	        854.94945340	        -38.87645955	          0.56692867	          0.00000000	          0.09649746	          0.00000000	          0.00004564	          0.00000000	          0.00000000	          1.09148520	          0.00000000	
          2.04800000	         -0.00282759	          0.01550107	         -0.00185879	         -0.00004495	          0.00000000	         -0.00004791	        -35.06269880	        852.99211286	        -38.74923497	          0.56719238	          0.00000000	          0.09655906	          0.00000000	          0.00003477	          0.00000000	          0.00000000	          1.03639101	          0.00000000	
          2.04900000	         -0.00366703	          0.01261349	         -0.00157642	         -0.00004212	          0.00000000	         -0.00004550	        -34.66448444	        851.07054220	        -38.62768824	          0.56745580	          0.00000000	          0.09661998	          0.00000000	          0.00002471	          0.00000000	          0.00000000	          0.98183449	          0.00000000	
          2.05000000	         -0.00442124	          0.00992377	         -0.00131211	         -0.00003937	          0.00000000	         -0.00004313	        -34.27246970	        849.18478182	        -38.51183590	          0.56771895	          0.00000000	          0.09668022	          0.00000000	          0.00001540	          0.00000000	          0.00000000	          0.92780676	          0.00000000	
          2.05100000	         -0.00509462	          0.00742524	         -0.00106532	         -0.00003670	          0.00000000	         -0.00004080	        -33.88658457	        847.33486473	        -38.40166722	          0.56798185	          0.00000000	          0.09673981	          0.00000000	          0.00000683	          0.00000000	          0.00000000	          0.87430060	          0.00000000	
          2.05200000	         -0.00569150	          0.00511108	         -0.00083548	         -0.00003412	          0.00000000	         -0.00003851	        -33.50676196	        845.52081625	        -38.29714412	          0.56824451	          0.00000000	          0.09679875	          0.00000000	         -0.00000104	          0.00000000	          0.00000000	          0.82131042	          0.00000000	
          2.05300000	         -0.00621611	          0.00297437	         -0.00062202	         -0.00003164	          0.00000000	         -0.00003627	        -33.13293727	        843.74265493	        -38.19820160	          0.56850693	          0.00000000	          0.09685706	          0.00000000	         -0.00000824	          0.00000000	          0.00000000	          0.76883215	          0.00000000	
          2.05400000	         -0.00667264	          0.00100810	         -0.00042437	         -0.00002924	          0.00000000	         -0.00003408	        -32.76504789	        842.00039448	        -38.10474866	          0.56876911	          0.00000000	          0.09691475	          0.00000000	         -0.00001480	          0.00000000	          0.00000000	          0.71686300	          0.00000000	
          2.05500000	         -0.00706513	         -0.00079481	         -0.00024192	         -0.00002694	          0.00000000	         -0.00003195	        -32.40303243	        840.29404582	        -38.01666970	          0.56903107	          0.00000000	          0.09697181	          0.00000000	         -0.00002074	          0.00000000	          0.00000000	          0.66540111	          0.00000000	
          2.05600000	         -0.00739756	         -0.00244142	         -0.00007406	         -0.00002473	          0.00000000	         -0.00002988	        -32.04682990	        838.62361885	        -37.93382618	          0.56929278	          0.00000000	          0.09702826	          0.00000000	         -0.00002609	          0.00000000	          0.00000000	          0.61444522	          0.00000000	
          2.05700000	         -0.00767376	         -0.00393880	          0.00007980	         -0.00002262	          0.00000000	         -0.00002788	        -31.69637872	        836.98912357	        -37.85605831	          0.56955426	          0.00000000	          0.09708409	          0.00000000	         -0.00003090	          0.00000000	          0.00000000	          0.56399434	          0.00000000	
          2.05800000	         -0.00789749	         -0.00529399	          0.00022028	         -0.00002060	          0.00000000	         -0.00002594	        -31.35161574	        835.39057106	        -37.78318652	          0.56981546	          0.00000000	          0.09713930	          0.00000000	         -0.00003518	          0.00000000	          0.00000000	          0.51404744	          0.00000000	
          2.05900000	         -0.00807235	         -0.00651395	          0.00034798	         -0.00001867	          0.00000000	         -0.00002406	        -31.01247506	        833.82797465	        -37.71501266	          0.57007639	          0.00000000	          0.09719389	          0.00000000	         -0.00003896	          0.00000000	          0.00000000	          0.46460336	          0.00000000	
